<?xml version="1.0" encoding="utf-8"?>
<!-- Generator: Adobe Illustrator 22.1.0, SVG Export Plug-In . SVG Version: 6.00 Build 0)  -->
<svg version="1.1" id="svg2" xmlns="http://www.w3.org/2000/svg" xmlns:xlink="http://www.w3.org/1999/xlink" x="0px" y="0px"
	 viewBox="0 0 595.4 559.4" style="enable-background:new 0 0 595.4 559.4;" xml:space="preserve">
<style type="text/css">
	.st0{fill:#2E4233;fill-opacity:0.11;}
	.st1{fill:#B75A30;}
	.st2{fill:url(#path4539_1_);}
	.st3{fill:url(#path4541_1_);}
	.st4{fill:url(#path4642_1_);}
	.st5{fill:url(#path4644_1_);}
	.st6{fill:url(#path4588_1_);}
	.st7{fill:url(#ellipse4590_1_);}
	.st8{fill:url(#path4406_1_);}
	.st9{fill:url(#path4408_1_);}
	.st10{fill:url(#path4365-1-2_1_);}
	.st11{fill:url(#path4367-9-2_1_);}
	.st12{fill:url(#path4188_1_);}
	.st13{fill:#E5D863;}
	.st14{fill:url(#path4398_1_);}
	.st15{fill:url(#path4369_1_);}
	.st16{fill:url(#path4365-1_1_);}
	.st17{fill:url(#path4367-9_1_);}
	.st18{fill:url(#path4636_1_);}
	.st19{fill:url(#path4638_1_);}
	.st20{opacity:6.000000e-02;}
	.st21{fill:url(#path4812_1_);}
	.st22{fill:url(#ellipse4814_1_);}
	.st23{fill:url(#path4828_1_);}
	.st24{fill:url(#circle4830_1_);}
	.st25{fill:url(#path4824_1_);}
	.st26{fill:#FFFFFF;}
	.st27{fill:url(#path4828-0_1_);}
	.st28{fill:#2E3436;}
	.st29{fill:url(#ellipse4650_1_);}
	.st30{fill:url(#ellipse4652_1_);}
	.st31{fill:url(#path4648_1_);}
	.st32{fill:url(#ellipse4523_1_);}
	.st33{fill:url(#path4521_1_);}
	.st34{fill:#E06C32;}
	.st35{fill:#B55930;}
	.st36{fill:#C15F33;}
	.st37{fill:#AF532B;}
	.st38{fill:none;stroke:#231F20;stroke-width:3;stroke-miterlimit:10;}
	.st39{fill:#F7931A;}
</style>
<title>migopher-2</title>
<g id="layer6">
	<path id="path4349" class="st0" d="M217.3,493.1c-40.1-2.2-49.7,8.9-73.4,8.9s-37.8-5.2-60.8-1.5s-32.6,3-44.5,13.4
		c-11.9,10.3-17.5,9.5-14.8,16.3c1.1,2.7,3.2,1.2,8.6,0.7c92.1-9.5,189.6,13.2,269.9,13.4c66.6,0.2,88.3-16.9,84.2-27.8
		C372.9,480.4,321.4,497.5,217.3,493.1L217.3,493.1z"/>
</g>
<g id="layer1">
	<path id="path4321" class="st1" d="M195.6,365.5c-16.6,4.1-3.1,29.3-19,36.4c-14.6,6.5-23.9,21.8-38.6,30
		c-19.4,10.9-37.8,14.4-56.8,28.6c-9.3,7-38.5,2.8-39.3,14.4c45-7,69,12.8,96.7,16.5c24.4,3.3,42.9,1.9,63.6-6
		c71.8-27.5,41.7-89.4,41.4-108.2C229.5,374.5,209.3,362.1,195.6,365.5z"/>
</g>
<g id="layer5">
	<g id="g4537">
		
			<linearGradient id="path4539_1_" gradientUnits="userSpaceOnUse" x1="497.7282" y1="-181.3902" x2="1112.6082" y2="-181.3902" gradientTransform="matrix(0.35 7.000000e-02 0.16 -0.47 -4.07 248.11)">
			<stop  offset="0" style="stop-color:#E1D6B9"/>
			<stop  offset="1" style="stop-color:#8C8573"/>
		</linearGradient>
		<path id="path4539" class="st2" d="M401.1,414.8c-0.7,1.6-1,3.4-0.8,5.1c0.3,1.4,1,2.6,2,3.6c1.1,1.2,2.2,2.2,3.5,3.2
			c1.3,1.1,2.7,2.2,4.1,3.2c1.3,1,2.8,1.8,4.3,2.5c1.3,0.6,2.6,1,4,1.2c1.1,0.2,2.2,0,3.3-0.5c1-0.6,1.8-1.6,2.1-2.8
			c0.5-1.1,0.5-2.4,0.1-3.5c-0.5-1-1.3-1.9-2.2-2.5c-1-0.7-2.3-1.2-3.7-1.9c-1.4-0.7-2.8-1.6-4-2.6c-1.3-1.3-2.5-2.7-3.5-4.2
			c-0.9-1.4-2-2.6-3.3-3.7c-0.8-0.8-2.1-1.1-3.2-0.8C402.8,411.6,400.3,416.8,401.1,414.8L401.1,414.8z"/>
		
			<linearGradient id="path4541_1_" gradientUnits="userSpaceOnUse" x1="-2169.9851" y1="-558.3079" x2="-2169.7351" y2="-558.3079" gradientTransform="matrix(-76.16 12.8 28.38 27.43 -149007.8281 43512.9609)">
			<stop  offset="0" style="stop-color:#394655"/>
			<stop  offset="1" style="stop-color:#000000"/>
		</linearGradient>
		<path id="path4541" class="st3" d="M407.1,410.8c1.2,0.9,2.3,1.9,3.3,3.1c1.2,1.6,2.6,3.1,4,4.5c1.4,1.2,2.9,2.3,4.6,3.1
			c1.4,0.7,2.8,1.6,4.1,2.5c1.1,0.8,2,1.9,2.5,3.1c0.5,1.3,0.5,2.8,0,4.1c-0.4,1.3-1.2,2.5-2.4,3.2c-1.2,0.6-2.6,0.9-3.9,0.8
			c-1.6-0.1-3.3-0.5-4.8-1.1c-1.8-0.7-3.5-1.6-5-2.8c-1.7-1.2-3.2-2.4-4.6-3.6c-1.3-1.1-2.5-2.2-3.6-3.5c-0.4-0.4-0.7-0.9-1-1.4
			c-0.6-1,0.5-3.2,0.9-2.1c0.4,1,0.9,2,1.7,2.8c1,1.1,2.1,2.1,3.3,3.1c1.2,1,2.6,2.1,3.9,3.1s2.6,1.8,4.1,2.4c1.2,0.6,2.5,1,3.8,1.2
			c1.1,0.2,2.2,0,3.1-0.4c1-0.6,1.7-1.5,2-2.6c0.4-1.1,0.5-2.3,0.1-3.4c-0.4-1-1.2-1.8-2.1-2.4c-1.1-0.7-2.3-1.3-3.5-1.9
			c-1.4-0.7-2.7-1.5-3.9-2.5c-1.3-1.2-2.4-2.5-3.4-4c-0.9-1.3-1.9-2.5-3.1-3.6c-0.1-0.1-0.2-0.2-0.4-0.3c-0.3-0.2-0.6-0.4-1-0.5
			s-0.1-1.8,0.8-1.2C406.8,410.6,407,411,407.1,410.8L407.1,410.8z"/>
	</g>
	<g id="g4640">
		
			<linearGradient id="path4642_1_" gradientUnits="userSpaceOnUse" x1="-2172.957" y1="-575.9333" x2="-2172.697" y2="-575.9333" gradientTransform="matrix(270.43 253.73 44.53 -34.01 613573.375 532208)">
			<stop  offset="0" style="stop-color:#394655"/>
			<stop  offset="1" style="stop-color:#000000"/>
		</linearGradient>
		<path id="path4642" class="st4" d="M340.8,490c3.3,6.3,2.1,13.6,2.7,19c0.6,5.4,3.1,8.9,5,11.6s3.6,4.5,5.4,5.1s3.5,0,5.4-2.2
			c1.8-2,2.8-4.6,2.6-7.3c0-2.8-0.9-5.9-2-9.6c-1.2-4.5-2.8-8.9-4.9-13c-3.1-5.9-7-11.4-11.8-16.1c-5.7-5.6-12.8-10-19-13.6
			s-11.6-6.4-15.8-8.5c-3.1-1.6-6.3-2.9-9.6-3.9c-2.3-0.6-3.7-0.4-4.2,0.5s0.2,2.4,2.3,4.3c3.2,2.8,6.6,5.3,10.3,7.5
			c4.8,3,11.1,6.5,17.5,10.7S337.5,483.7,340.8,490L340.8,490z"/>
		
			<linearGradient id="path4644_1_" gradientUnits="userSpaceOnUse" x1="1114.6445" y1="373.9242" x2="1729.5244" y2="373.9242" gradientTransform="matrix(0.16 0.29 0.64 -0.39 -133.97 218.91)">
			<stop  offset="0" style="stop-color:#E1D6B9"/>
			<stop  offset="1" style="stop-color:#000000"/>
		</linearGradient>
		<path id="path4644" class="st5" d="M342,488.2c3.3,5.2,3.5,11.2,3.5,16.5c-0.1,4.2,1,8.3,3,12c1.7,2.8,3.3,4.7,4.9,5.6
			s3,0.6,4.6-1.1c1.5-1.8,2.2-4.1,1.7-6.4c-0.6-3.1-1.4-6.1-2.4-9c-1.1-4.3-2.6-8.4-4.5-12.4c-2.7-5.3-6.1-10.1-10.3-14.3
			c-4.7-4.6-10-8.5-15.7-11.8c-5.2-3.1-9.9-5.6-13.6-7.5c-2.7-1.5-5.6-2.7-8.5-3.8c-2-0.7-3.1-0.7-3.4-0.1s0.6,1.8,2.6,3.4
			c3.1,2.3,6.2,4.4,9.5,6.3c4.3,2.6,9.6,5.6,14.9,9.3S338.7,483,342,488.2z"/>
	</g>
	<g id="g4594">
		
			<linearGradient id="path4588_1_" gradientUnits="userSpaceOnUse" x1="-2174.2837" y1="-560.3715" x2="-2174.0237" y2="-560.3715" gradientTransform="matrix(-363.08 -18.54 -3.46 39.55 -791119.125 -17731.5098)">
			<stop  offset="0" style="stop-color:#394655"/>
			<stop  offset="1" style="stop-color:#000000"/>
		</linearGradient>
		<path id="path4588" class="st6" d="M212.5,417.1c-6.8-2-11.4-6.7-15.9-9.4c-3.6-2.2-7.7-3.6-11.9-4.2c-3.3-0.6-5.7-0.9-7.2-0.4
			s-2.2,1.6-1.9,3.7s1.6,3.8,3.7,5.3c2.7,1.8,5.5,3.3,8.4,4.5c4.1,2,8.4,3.7,12.8,5c6.4,1.9,12.9,3.2,19.6,3.6
			c7.5,0.3,15,0,22.4-1.1c6.7-0.8,12.2-1.7,16.5-2.5c3.1-0.5,6.1-1.2,9.1-2.2c1.9-0.7,2.7-1.5,2.4-2.2s-1.9-1.2-4.7-1.4
			c-4.1-0.1-8.1,0-12.2,0.5c-5.3,0.5-12,1.5-19.2,2S219.3,419,212.5,417.1L212.5,417.1z"/>
		
			<linearGradient id="ellipse4590_1_" gradientUnits="userSpaceOnUse" x1="-967.9624" y1="390.9664" x2="-867.2624" y2="390.9664" gradientTransform="matrix(0.11 -0.24 -0.71 -8.000000e-02 518.75 398.89)">
			<stop  offset="0" style="stop-color:#E1D6B9"/>
			<stop  offset="1" style="stop-color:#000000"/>
		</linearGradient>
		<path id="ellipse4590" class="st7" d="M213,418.6c-6-1.4-10.6-4.7-14.5-7.6c-3.2-2.5-6.9-4.3-10.9-5.4c-2.4-0.7-4.8-1-7.3-0.9
			c-1.6,0.2-2.4,1-2.1,2.7s1.6,3.1,3.6,4.4c2.7,1.5,5.4,2.8,8.2,4c3.9,1.9,7.9,3.5,12,4.9c5.6,1.7,11.4,2.8,17.3,3.3
			c6.3,0.4,12.7,0.2,18.9-0.6c5.7-0.6,10.6-1.4,14.4-2c2.8-0.4,5.6-1,8.3-1.8c1.8-0.5,2.5-1,2.3-1.5s-1.7-0.7-4.2-0.7
			s-6.2,0.3-10.8,0.8s-10.4,1.2-16.5,1.6C225.4,420.3,219.1,419.9,213,418.6z"/>
	</g>
	<g id="g4404">
		
			<linearGradient id="path4406_1_" gradientUnits="userSpaceOnUse" x1="-84.2118" y1="-786.1573" x2="-83.2118" y2="-786.1573" gradientTransform="matrix(-13.85 -34.52 45.19 -15.95 56473.5234 38978.0938)">
			<stop  offset="0" style="stop-color:#96D6FF"/>
			<stop  offset="1" style="stop-color:#000000"/>
		</linearGradient>
		<path id="path4406" class="st8" d="M331.6,196.6c1.3,2.8,3.4,5.1,6.1,6.6c2.6,1.5,5.6,2.6,8.6,3.1c2.9,0.5,5.8,0.4,8.7-0.3
			c3.1-0.7,6.1-2,8.6-3.9c2-1.8,3.3-4.3,3.8-6.9c0.5-2.8,1.3-5.6,2.5-8.2c1.6-3.2,3-6.4,2.9-8.8c-0.1-2.2-0.7-4.4-1.7-6.4
			c-1-1.8-2.4-3.2-4.1-4.2c-1.8-1-3.8-1.6-5.8-1.7c-2.4-0.2-4.8,0-7.1,0.5c-5.6,1.3-10.8,3.9-15.2,7.6c-2.1,1.8-4,3.9-5.5,6.3
			c-1.4,2.3-2.3,4.8-2.5,7.4C330.5,190.2,330.4,193.9,331.6,196.6z"/>
		
			<linearGradient id="path4408_1_" gradientUnits="userSpaceOnUse" x1="-2171.4714" y1="-570.103" x2="-2171.2314" y2="-570.103" gradientTransform="matrix(-2.37 177.89 68.44 -25.34 34223.2305 372005.125)">
			<stop  offset="0" style="stop-color:#394655"/>
			<stop  offset="1" style="stop-color:#000000"/>
		</linearGradient>
		<path id="path4408" class="st9" d="M347.3,166.7c2.1-0.8,4.2-1.5,6.4-1.9c2.6-0.6,5.2-0.7,7.8-0.6c2.3,0.1,4.5,0.8,6.5,1.9
			c1.9,1.1,3.5,2.6,4.6,4.6c1.2,2.1,1.9,4.5,2,6.9c0.2,2.6-0.8,5.8-2.6,9.3c-1.4,2.8-2.3,5.8-2.8,8.9c-0.5,2.5-2.2,4.9-5.3,6.8
			c-0.4,0.2-1.1-0.7-0.9-1c2.4-2.1,3-4.7,3.8-6.8c0.5-2.8,1.3-5.5,2.5-8c1.5-3.1,2.9-6.3,2.8-8.6c-0.1-2.2-0.6-4.3-1.6-6.2
			c-0.9-1.7-2.3-3.1-4-4.1c-1.8-1-3.7-1.5-5.7-1.7c-2.3-0.2-4.7,0-6.9,0.5c-1.3,0.3-2.5,0.6-3.8,1.1s-2.6,1-3.9,1.6
			c-2.6,1.2-5,2.8-7.2,4.7c-2.1,1.8-3.9,3.8-5.3,6.2c-1.4,2.2-2.2,4.7-2.5,7.2c-0.2,2.5-0.3,6.1,0.8,8.8c1,2.2,2.6,4.1,4.6,5.5
			c0.4,0.3-1.1,1.9-2.3,1.2c-2.1-1.4-3.7-3.4-4.5-5.7c-1.1-3.1-1.5-6.4-1.2-9.7c0.3-2.9,1.2-5.7,2.7-8.1c1.6-2.6,3.6-4.9,5.9-6.8
			c2.4-2,5.1-3.7,8-5.1C345.9,167.2,346.6,166.9,347.3,166.7L347.3,166.7z"/>
		
			<linearGradient id="path4365-1-2_1_" gradientUnits="userSpaceOnUse" x1="-2154.5068" y1="-551.4067" x2="-2154.2468" y2="-551.4067" gradientTransform="matrix(-16.43 30.62 19.33 -8.87 -24381.3496 61270.25)">
			<stop  offset="0" style="stop-color:#394655"/>
			<stop  offset="1" style="stop-color:#000000"/>
		</linearGradient>
		<path id="path4365-1-2" class="st10" d="M366.8,181.4c-0.4-0.6-1.4-0.8-2.9-0.4c-2.3,0.6-5,3.2-6.4,5.2c-0.9,1-1.6,2.2-2.2,3.4
			c-0.2,0.5-0.3,1-0.2,1.5c0.5-0.1,0.9-0.8,1.2-1.3c1.1-2.1,2.6-3.9,4.5-5.2c1.6-1.1,1.8-1.9,3.5-2.6
			C365.2,181.4,365.9,181.7,366.8,181.4L366.8,181.4z"/>
		
			<linearGradient id="path4367-9-2_1_" gradientUnits="userSpaceOnUse" x1="-2158.8599" y1="-576.8332" x2="-2158.6599" y2="-576.8332" gradientTransform="matrix(7.37 26.93 6.72 -1.66 20148.3398 57366.6484)">
			<stop  offset="0" style="stop-color:#394655"/>
			<stop  offset="1" style="stop-color:#000000"/>
		</linearGradient>
		<path id="path4367-9-2" class="st11" d="M357.7,185.7c-0.5-0.5,0.4,1,1,1.2c2.1,0.7,4.1,1.6,6.2,2.4c0.7,0.3,0.9-0.4,0.3-0.8
			c-0.6-0.4-1.2-0.6-1.8-0.9c-0.6-0.2-1.2-0.3-1.8-0.6c-1.1-0.5-1.7-1.2-2.8-1.7C358.5,185.2,358,186,357.7,185.7L357.7,185.7z"/>
	</g>
	<g id="g4198">
		
			<linearGradient id="path4188_1_" gradientUnits="userSpaceOnUse" x1="-2173.6794" y1="-570.905" x2="-2173.4395" y2="-570.905" gradientTransform="matrix(526.35 1331.91 -353.25 81.45 942680.75 2941840)">
			<stop  offset="0" style="stop-color:#394655"/>
			<stop  offset="1" style="stop-color:#000000"/>
		</linearGradient>
		<path id="path4188" class="st12" d="M423.5,379.9c-5.1,42.3-14.2,83.4-46.3,111.5c-40.5,35.4-114.9,40.1-167.6,6.5
			c-15.2-9.7-27.4-36.7-29.3-54.2c-4.1-36.5,11-61.2,7.4-94.9c-2.8-26.8-16.4-49-15.1-80.9c0.9-21.4,6.1-46.3,22.4-59.6
			c21.3-17.4,46.2-27.3,74.4-26.6c40.2,1,83.5,3.7,117.2,29.5c24,18.4,37.8,48.7,40.3,79.9C429.3,323.2,426.7,352.9,423.5,379.9
			L423.5,379.9z"/>
		<path id="ellipse4190" class="st13" d="M413.4,419c-8.6,38.9-32.3,75.2-74.2,89.6c-39,13.4-90.3,10.2-128.2-15.1
			c-14.4-9.6-25.4-36.3-27-52.8c-3.3-34.8,10.5-60.3,7.4-92.5c-2.6-26.8-15.5-46.3-15.1-78.1c0.3-20.8,5-45.4,20.9-58.3
			c20.2-16.3,43.3-26.7,69.8-26.6c42.1,0.2,89.5,3.3,123.1,33.4c30.6,27.6,35,76.2,33.6,114.2C422.4,364.1,419.4,392.2,413.4,419
			L413.4,419z"/>
	</g>
	<g id="g4376">
		
			<linearGradient id="path4398_1_" gradientUnits="userSpaceOnUse" x1="-80.529" y1="-781.5058" x2="-79.529" y2="-781.5058" gradientTransform="matrix(-26.31 -45.92 -47.17 26.49 2533.0593 89353.8672)">
			<stop  offset="0" style="stop-color:#96D6FF"/>
			<stop  offset="1" style="stop-color:#000000"/>
		</linearGradient>
		<path id="path4398" class="st14" d="M206.9,200.6c1.8,3.3,2.6,7,2.3,10.7c-0.3,3.4-1.3,6.8-3,9.8c-1.5,2.8-3.7,5.3-6.4,7.1
			s-6.2,3.7-10,4.1s-6.9-1.2-9.6-2.9c-3.2-2.2-6.6-4.1-10.2-5.6c-4.4-1.7-8.7-3.4-11.1-5.9c-2.3-2.3-4.2-5-5.6-8
			c-1.2-2.6-1.8-5.4-1.7-8.2c0.1-2.6,0.8-5.1,2-7.3c1.3-2.4,3.1-4.4,5.4-6c2.5-1.8,5.4-3.1,8.4-3.8c3.4-0.8,6.9-1.1,10.4-0.8
			c3.7,0.3,7.3,1.1,10.8,2.4c3.5,1.3,6.8,3.1,9.7,5.4C201.1,193.8,204.9,197.2,206.9,200.6L206.9,200.6z"/>
		
			<linearGradient id="path4369_1_" gradientUnits="userSpaceOnUse" x1="-2172.2659" y1="-567.7343" x2="-2172.0259" y2="-567.7343" gradientTransform="matrix(184.98 166.71 -72.65 38.87 360733.9688 384388.8125)">
			<stop  offset="0" style="stop-color:#394655"/>
			<stop  offset="1" style="stop-color:#000000"/>
		</linearGradient>
		<path id="path4369" class="st15" d="M164.1,183.6c-2.3,0.9-4.5,2-6.5,3.5c-2.4,1.8-4.4,4-5.8,6.6c-1.4,2.5-2.2,5.3-2.3,8.1
			c-0.1,3.1,0.5,6.2,1.8,9c1.4,3.2,3.4,6.2,5.9,8.7c2.6,2.7,6.6,4.8,11.4,6.5s8.1,4,11.1,5.8c3.2,1.9,7,2.4,10.5,1.3
			c0.5-0.1,0.1-1.6-0.4-1.6c-3.8,0.2-6.8-1.5-9.5-2.8c-3.1-2.2-6.5-4-10-5.5c-4.3-1.6-8.5-3.3-10.8-5.7c-2.3-2.2-4.1-4.9-5.5-7.8
			c-1.2-2.5-1.8-5.2-1.7-8c0.1-2.5,0.8-5,2-7.2c1.3-2.3,3.1-4.3,5.2-5.8c1.2-0.8,2.4-1.6,3.8-2.2c1.5-0.7,3-1.2,4.5-1.6
			c3.3-0.8,6.8-1.1,10.2-0.8c3.6,0.3,7.1,1.1,10.5,2.3c3.4,1.3,6.6,3.1,9.4,5.3c2.8,2.3,6.5,5.5,8.4,8.8c1.5,2.6,2.3,5.6,2.3,8.6
			c0,0.5,2.7,0.6,2.8-1c0.1-3-0.8-6-2.4-8.6c-2.1-3.6-5.9-7.3-9-9.8s-6.7-4.5-10.5-5.9c-3.7-1.4-7.6-2.2-11.6-2.5
			c-3.8-0.3-7.6,0.1-11.3,1.1C165.8,182.9,164.9,183.2,164.1,183.6L164.1,183.6z"/>
		
			<linearGradient id="path4365-1_1_" gradientUnits="userSpaceOnUse" x1="-2168.0908" y1="-559.5703" x2="-2167.821" y2="-559.5703" gradientTransform="matrix(55.4 47.97 -22.2 11.67 107868.8281 110740.1328)">
			<stop  offset="0" style="stop-color:#394655"/>
			<stop  offset="1" style="stop-color:#000000"/>
		</linearGradient>
		<path id="path4365-1" class="st16" d="M171.6,206c0.3-1.1,1.6-1.9,4.1-2c3.7-0.2,8.8,2.4,11.9,4.6c1.8,1.1,3.4,2.4,4.8,4
			c0.5,0.6,0.9,1.3,1,2.1c-0.8,0.1-1.8-0.7-2.4-1.3c-2.5-2.6-5.7-4.5-9.1-5.6c-2.9-0.9-3.6-2-6.4-2.2C173.8,205.3,173,206,171.6,206
			z"/>
		
			<linearGradient id="path4367-9_1_" gradientUnits="userSpaceOnUse" x1="-2158.1895" y1="-543.6268" x2="-2157.9895" y2="-543.6268" gradientTransform="matrix(31.92 14.38 -15.76 6.93 60504.3477 35014.7422)">
			<stop  offset="0" style="stop-color:#394655"/>
			<stop  offset="1" style="stop-color:#000000"/>
		</linearGradient>
		<path id="path4367-9" class="st17" d="M187,208.1c0.4-0.9-0.1,1.7-0.9,2.2c-2.8,2-5.3,4.4-8,6.6c-0.9,0.7-1.5-0.2-0.8-1
			s1.4-1.5,2.3-2.1c0.8-0.6,1.7-1,2.4-1.7c1.4-1.3,2-2.5,3.3-3.9c0.4-0.5,1.5,0.4,1.8,0L187,208.1z"/>
	</g>
	<g id="g4634">
		
			<linearGradient id="path4636_1_" gradientUnits="userSpaceOnUse" x1="-1266.3949" y1="391.2581" x2="-651.5049" y2="391.2581" gradientTransform="matrix(-0.1 -0.34 -0.49 9.000000e-02 416.35 399.64)">
			<stop  offset="0" style="stop-color:#E1D6B9"/>
			<stop  offset="1" style="stop-color:#000000"/>
		</linearGradient>
		<path id="path4636" class="st18" d="M254.1,505.1c-1.7-0.4-3.5-0.3-5.1,0.3c-1.3,0.6-2.4,1.5-3.1,2.7c-0.9,1.4-1.6,2.8-2.3,4.3
			c-0.7,1.6-1.4,3.3-2.1,5c-0.7,1.6-1.2,3.2-1.6,4.9c-0.3,1.4-0.5,2.8-0.4,4.3c0,2.6,1.9,4.7,4.4,5c1.3,0.3,2.6,0.2,3.8-0.4
			c1-0.6,1.8-1.5,2.2-2.5c0.6-1.3,1-2.6,1.3-4c0.4-1.7,0.9-3.3,1.6-4.9c0.8-1.7,1.7-3.4,2.8-5c1-1.4,1.8-2.9,2.5-4.4
			c0.6-1.1,0.6-2.3,0-3.4C257.5,506.2,256.2,505.5,254.1,505.1z"/>
		
			<linearGradient id="path4638_1_" gradientUnits="userSpaceOnUse" x1="-2177.1948" y1="-565.9716" x2="-2176.9749" y2="-565.9716" gradientTransform="matrix(-47.56 -68.45 -15.56 37.29 -112104.5078 -127403.7109)">
			<stop  offset="0" style="stop-color:#394655"/>
			<stop  offset="1" style="stop-color:#000000"/>
		</linearGradient>
		<path id="path4638" class="st19" d="M259.3,510.3c-0.5,1.5-1.2,2.9-2,4.2c-1.1,1.8-2,3.7-2.9,5.6c-0.8,2-1.4,3.9-1.9,5.6
			c-0.4,1.6-1.1,3.1-1.8,4.5c-1.4,2.7-4.4,4.1-7.3,3.4c-1.5-0.2-2.8-0.9-3.8-2c-0.9-1.1-1.4-2.4-1.5-3.8c-0.2-1.7-0.1-3.4,0.2-5
			c0.3-2,0.9-3.9,1.6-5.7c0.8-2,1.6-3.8,2.4-5.6c0.7-1.6,1.6-3.1,2.6-4.5c0.4-0.5,0.7-0.9,1.2-1.3c0.8-0.8,3.2-0.2,2.2,0.4
			c-0.8,0.6-1.5,1.3-1.9,2.2c-0.8,1.3-1.4,2.7-2,4.2s-1.8,2.8-2.4,4.4c-0.6,1.4-1.1,2.9-1.4,4.4c-0.3,1.3-0.4,2.7-0.4,4
			c0,1.1,0.4,2.1,1,3c0.8,0.9,1.8,1.5,3,1.6c1.1,0.3,2.3,0.2,3.2-0.4c0.8-0.5,0.9-1.9,1.3-2.9c0.5-1.2,1-2.4,1.3-3.7
			c0.4-1.3,1-2.5,1.8-3.7c1-1.6,2.1-3,3.3-4.4c1.1-1.3,1.9-2.7,2.6-4.2c0.1-0.2,0.1-0.3,0.2-0.5c0.1-0.4,0.2-0.7,0.2-1.1
			s1.6-0.5,1.3,0.5c0,0.2-0.1,0.4-0.1,0.5L259.3,510.3z"/>
	</g>
</g>
<g id="layer9" class="st20">
	<ellipse id="path4544" cx="361.4" cy="322.9" rx="18" ry="16.5"/>
	<path id="path4271" d="M175.1,184.8c-5.3-0.1-8.6,0.7-12.5,2.6s-8,6.3-9.2,10c-1.8,5.5-0.3,11.9,4,17.6c2.6,3.3,5.5,5.2,11.7,7.7
		c2.8,1.1,5.4,2.4,8,3.9c4.5,2.8,7.9,4.3,10.8,4.6c1.9,0.2,2.5,0.5,2.5,1.2s-0.6,1-2.3,1.3c-1.3,0.2-2.6,0.2-3.9,0
		c-1.6-0.3-1.6-0.3-2.9,3.8c-3.1,9.4-4.7,20.7-4.6,33.7c0,14.6,1.5,23.1,7.7,44.8c4.4,15.6,5.7,21.1,6.9,29.8
		c1.6,12.5,1.1,21.3-3.1,46.2c-3.9,23.2-4.1,25.4-4.1,37.2c0,11.4,0.5,15.9,2.8,23.9c4.4,15,11,27.3,19.1,35.4
		c6.4,6.4,18.1,13,33,18.6c4.4,1.6,4.7,1.7,5.2,0.8c1.4-2.5,2.6-3,7.5-3c-31-27-27.6-65.8-20.4-87.1c5.9-17.5,25.4-42.6,25.4-42.6
		l-17.9-1.6c0,0-5.8-34.1-10.5-47.9c-18.1-52.9-23.9-96.3,3.5-126.6c4.4-4.9,9.8-8.9,15.7-11.8c-7.3,1.5-14.4,3.7-21.2,6.6
		c-5.3,2.3-15.2,7.9-15.2,8.6c0.1,0.9,0.3,1.9,0.5,2.8c0.6,2.8-0.1,4.4-1.8,4.2c-0.9-0.1-1.2-0.6-1.5-2.8c-0.5-4.1-2.6-7.5-7.2-11.9
		c-7.4-7-13.8-9.8-23.4-10.2C176.6,184.8,175.8,184.7,175.1,184.8L175.1,184.8z M176.2,204c1.6,0.1,3.2,0.3,4.7,0.8
		c3.2,1.1,9.9,5.4,11.4,7.4c2.4,3,0.8,3.2-2.7,0.3c-0.9-0.8-1.9-1.5-2.9-2.1c-1.6,1-3.1,2.2-4.5,3.4c-2.3,1.9-4.5,3.4-4.8,3.4
		c-1.5,0-0.4-1.7,2.5-3.9c3.7-2.9,4.7-4.3,3.3-4.8c-0.5-0.2-2.3-0.9-4-1.6c-2.4-1-3.6-1.2-5.4-0.9c-2.5,0.4-3.1-0.3-1.2-1.3
		C173.8,204.1,175,203.9,176.2,204z M259.2,511L259.2,511l-0.6,1.8l4.5,0.8h0.2C261.9,512.7,260.6,511.8,259.2,511L259.2,511z"/>
	<path id="path4275" d="M250.1,375.4l-3.6,11.9c2.1,0,7.9-5.1,13.4-5.5c61.6-3.5,100-0.3,149.8-4.3c1.4-0.1,2.8-0.1,4.2,0.2
		c4.2,0.9,6.5,11.5,7.5,10.9c0.5-11.3-1.9-15.3-4.6-18.1L250.1,375.4z"/>
</g>
<g id="layer2">
	<g id="g4818">
		
			<linearGradient id="path4812_1_" gradientUnits="userSpaceOnUse" x1="-2173.167" y1="-569.5372" x2="-2172.9368" y2="-569.5372" gradientTransform="matrix(-246.7 460.24 165.57 28.14 -441508.9688 1016426.9375)">
			<stop  offset="0" style="stop-color:#394655"/>
			<stop  offset="1" style="stop-color:#000000"/>
		</linearGradient>
		<path id="path4812" class="st21" d="M224.6,272.1c0.3,7.7,2.1,15.2,5.4,22.2c3.4,7,8,13.4,13.6,18.9c5.7,5.6,12.3,10.2,19.5,13.7
			c7.3,3.5,15.2,5.6,23.4,6.2c7.8,0.6,15.7-0.5,23-3.2c7-2.6,13.3-6.7,18.5-12c5.3-5.4,9.5-11.8,12.2-18.9c2.9-7.5,4.3-15.6,4-23.6
			c-0.2-8.2-2-16.2-5.3-23.7c-3.2-7.1-7.6-13.6-13.2-19c-5.5-5.4-12-9.6-19.1-12.4c-7.4-2.9-15.3-4.3-23.2-4.2
			c-7.9,0.1-15.8,1.7-23.1,4.7c-7,2.8-13.4,6.9-18.9,12c-5.3,5-9.6,10.9-12.5,17.6C225.8,257.2,224.4,264.6,224.6,272.1L224.6,272.1
			z"/>
		
			<linearGradient id="ellipse4814_1_" gradientUnits="userSpaceOnUse" x1="-73.6444" y1="1545.7684" x2="-72.6442" y2="1545.7684" gradientTransform="matrix(-112.51 0 0 -109.85 -50846.4492 170077.6875)">
			<stop  offset="0" style="stop-color:#FFFFFF"/>
			<stop  offset="1" style="stop-color:#000000"/>
		</linearGradient>
		<path id="ellipse4814" class="st22" d="M228.7,270.3c0,7.3,1.6,14.5,4.5,21.2c3,6.8,7.1,13.1,12.3,18.5
			c5.3,5.5,11.4,10.1,18.3,13.6s14.5,5.6,22.2,6.2c7.5,0.6,15-0.5,22-3.1c6.6-2.5,12.7-6.4,17.7-11.4c5.1-5.1,9-11.2,11.7-17.8
			c2.8-7,4.1-14.6,4-22.1c-0.1-7.6-1.8-15.1-4.8-22c-5.8-13.3-16.7-23.7-30.1-29.1c-6.9-2.7-14.2-4.2-21.7-4.2
			c-7.4,0-14.7,1.2-21.7,3.8c-6.5,2.4-12.5,6-17.8,10.5c-5,4.4-9.1,9.8-12,15.9C230.2,256.5,228.7,263.3,228.7,270.3L228.7,270.3z"
			/>
		
			<linearGradient id="path4828_1_" gradientUnits="userSpaceOnUse" x1="493.5931" y1="40.75" x2="555.2131" y2="40.75" gradientTransform="matrix(0.52 0 0 -0.52 86.42 292.19)">
			<stop  offset="0" style="stop-color:#394455"/>
			<stop  offset="1" style="stop-color:#000000"/>
		</linearGradient>
		<circle id="path4828" class="st23" cx="271.5" cy="271" r="16.2"/>
		
			<linearGradient id="circle4830_1_" gradientUnits="userSpaceOnUse" x1="-77.59" y1="1523.0156" x2="-76.5906" y2="1523.0156" gradientTransform="matrix(-15.91 0 0 -15.91 -7012.7002 24494.7793)">
			<stop  offset="0" style="stop-color:#FFFFFF"/>
			<stop  offset="1" style="stop-color:#000000"/>
		</linearGradient>
		<circle id="circle4830" class="st24" cx="278.7" cy="263.6" r="8"/>
	</g>
	<g id="g4822">
		
			<linearGradient id="path4824_1_" gradientUnits="userSpaceOnUse" x1="-2173.249" y1="-568.0551" x2="-2173.019" y2="-568.0551" gradientTransform="matrix(-342.9 239.62 106.36 80.08 -684336.9375 566483.9375)">
			<stop  offset="0" style="stop-color:#394655"/>
			<stop  offset="1" style="stop-color:#000000"/>
		</linearGradient>
		<path id="path4824" class="st25" d="M377,242.1c-0.1,6.1,1.1,12.8,3,19.6c1.9,6.9,4.3,13.9,6.8,20.7c2.2,6.4,4.8,12.6,7.6,18.7
			c2.7,5.5,5.6,10,9.3,13.3c3.3,3.1,7.5,4.9,12,5.3c4.4,0.4,9.8,1.1,14.5-1c5-2.4,9.6-5.7,13.3-9.8c4.4-4.7,7.9-10.2,10.3-16.2
			c2.6-6.3,4-13.1,4.2-19.9c0.2-6.7-0.8-13.3-3-19.6c-2.2-6.2-7.2-13.9-11.5-19c-4.4-5.1-9.8-9.4-15.8-12.6c-5.7-3-11.8-5-18.2-5.6
			c-5.5-0.6-11.1,0-16.3,1.9c-4.7,1.7-8.7,4.8-11.6,8.8C378.7,230.8,377.1,235.9,377,242.1L377,242.1z"/>
		<path id="path4826" class="st26" d="M379.7,242.8c-0.2,6.2,0.5,12.4,2.1,18.4c1.7,6.7,3.7,13.3,6.2,19.7c2.2,6.1,4.9,12,7.9,17.8
			c2.9,5.2,5.9,9.5,9.5,12.6c3.1,2.8,7.1,4.6,11.3,5c4,0.3,9,1.1,13.2-0.8c4.5-2.2,8.6-5.4,11.9-9.2c3.9-4.5,7-9.6,9.1-15.2
			c2.3-5.9,3.5-12.2,3.6-18.5c0.1-6.2-0.9-12.4-3-18.2s-6.9-13.1-10.9-17.8c-4.1-4.8-9.1-8.8-14.6-11.8c-5.2-2.8-10.8-4.7-16.7-5.4
			c-5-0.6-10-0.1-14.8,1.6c-4.2,1.5-7.9,4.3-10.5,7.9C381.3,233,379.8,237.8,379.7,242.8L379.7,242.8z"/>
		
			<linearGradient id="path4828-0_1_" gradientUnits="userSpaceOnUse" x1="-89.8896" y1="459.6102" x2="525.0003" y2="459.6102" gradientTransform="matrix(-2.74 0.17 -0.15 -2.34 -1577.97 1463.26)">
			<stop  offset="0" style="stop-color:#394455"/>
			<stop  offset="1" style="stop-color:#000000"/>
		</linearGradient>
		<circle id="path4828-0" class="st27" cx="443.1" cy="258.1" r="12.4"/>
		<circle id="circle4830-3" class="st26" cx="448.1" cy="253.5" r="6.1"/>
	</g>
</g>
<g id="layer7">
	<path id="rect4659" class="st28" d="M369.5,318.9l-5.1,0.1l-3-0.1c-0.9,0-1.8,0.4-2.4,1.1s-1,1.6-1.1,2.6l-0.8,5.7L356,334
		c-0.2,0.9,0,1.8,0.6,2.6c0.5,0.7,1.3,1.1,2.2,1l3,0.1l5.9-0.1c1.1,0,2.2-0.4,3-1.1s1.2-1.6,1.3-2.6l0.5-5.6l0.4-5.6
		c0.1-1.9-1.4-3.5-3.3-3.6C369.6,319,369.5,319,369.5,318.9L369.5,318.9z"/>
	<path id="rect4661" class="st26" d="M368.6,320.7h-4.2l-2-0.1c-0.8,0-1.5,0.3-2,0.9s-0.9,1.3-1,2.1l-0.8,4.6l-1,4.6
		c-0.2,0.7,0,1.5,0.4,2.1c0.4,0.5,1.1,0.9,1.8,0.9l2,0.1l4.7-0.1c0.9,0,1.7-0.4,2.4-0.9c0.6-0.5,1-1.3,1.1-2.1l0.6-4.6l0.5-4.6
		c0.1-0.8-0.2-1.5-0.7-2.1c-0.5-0.5-1.2-0.8-1.9-0.8H368.6z"/>
	
		<linearGradient id="ellipse4650_1_" gradientUnits="userSpaceOnUse" x1="-2170.1313" y1="-566.5772" x2="-2169.8914" y2="-566.5772" gradientTransform="matrix(90.24 101.06 -60.56 6.18 161875.8125 223114.0938)">
		<stop  offset="0" style="stop-color:#394655"/>
		<stop  offset="1" style="stop-color:#000000"/>
	</linearGradient>
	<path id="ellipse4650" class="st29" d="M345.4,314.1c0.3,1.9,1.3,3.7,2.9,4.9c1.9,1.6,4,3,6.3,3.9c2.7,1.1,5.5,1.9,8.3,2.3
		c2.9,0.4,5.8,0.5,8.8,0.1c2.7-0.3,5.3-1,7.8-1.9c2-0.7,3.9-1.7,5.6-3c1.4-1,2.5-2.3,3.3-3.8c0.7-1.4,1-3,0.7-4.6
		c-0.3-1.8-1.1-3.4-2.2-4.8c-1.3-1.6-2.9-3-4.7-4c-2-1.2-4.2-2.1-6.5-2.6c-2.6-0.6-5.3-0.9-7.9-0.8c-2.9,0.1-5.7,0.5-8.5,1.3
		c-2.6,0.7-5.1,1.8-7.5,3.1c-2,1.1-3.7,2.6-5,4.5C345.7,310.4,345.3,312.3,345.4,314.1L345.4,314.1z"/>
	
		<linearGradient id="ellipse4652_1_" gradientUnits="userSpaceOnUse" x1="264.3831" y1="-28.2639" x2="329.6132" y2="-28.2639" gradientTransform="matrix(0.52 0 0 -0.52 101.44 298.02)">
		<stop  offset="0" style="stop-color:#E1D0CB"/>
		<stop  offset="1" style="stop-color:#000000"/>
	</linearGradient>
	<path id="ellipse4652" class="st30" d="M351.5,313.7c0.3,1.6,1.2,3,2.4,4c1.5,1.3,3.2,2.4,5,3.1c4.2,1.8,8.8,2.4,13.3,1.9
		c2.1-0.3,4.1-0.8,6-1.5c1.6-0.6,3.1-1.5,4.4-2.5c1.1-0.8,1.9-1.9,2.5-3.1c0.5-1.2,0.6-2.5,0.4-3.7c-0.3-1.4-0.9-2.7-1.9-3.7
		c-1.1-1.2-2.3-2.3-3.7-3.1c-1.6-0.9-3.3-1.6-5.1-2c-2-0.5-4.1-0.6-6.2-0.5c-2.2,0.1-4.4,0.5-6.5,1.1c-2,0.6-3.9,1.4-5.7,2.5
		c-1.5,0.9-2.8,2.1-3.9,3.5C351.5,310.8,351.2,312.3,351.5,313.7L351.5,313.7z"/>
	
		<linearGradient id="path4648_1_" gradientUnits="userSpaceOnUse" x1="-2167.3093" y1="-563.566" x2="-2167.0693" y2="-563.566" gradientTransform="matrix(48.84 58.29 -32.78 3.56 87747.0781 128640.0156)">
		<stop  offset="0" style="stop-color:#394655"/>
		<stop  offset="1" style="stop-color:#000000"/>
	</linearGradient>
	<path id="path4648" class="st31" d="M359.5,304.9c0.4,1.1,1.2,2.1,2.2,2.7c1.2,0.8,2.6,1.5,4,1.9c1.5,0.5,3.1,0.8,4.7,1
		c1.5,0.2,3.1,0.2,4.6,0c1.3-0.1,2.5-0.4,3.7-0.9c1-0.4,1.8-1,2.5-1.7s1.2-1.5,1.4-2.4c0.3-0.9,0.4-1.9,0.2-2.8
		c-0.2-1-0.7-2-1.3-2.9c-0.7-0.9-1.6-1.7-2.7-2.3c-1.2-0.7-2.5-1.2-3.8-1.4c-1.5-0.3-3.1-0.4-4.6-0.2c-1.6,0.1-3.2,0.5-4.7,1.1
		c-1.3,0.5-2.6,1.2-3.8,2.1c-1,0.7-1.7,1.7-2.3,2.8C359.3,302.8,359.2,303.9,359.5,304.9L359.5,304.9z"/>
</g>
<g id="layer12">
	<g id="g4533">
		
			<linearGradient id="ellipse4523_1_" gradientUnits="userSpaceOnUse" x1="-10.2348" y1="-238.9205" x2="604.6553" y2="-238.9205" gradientTransform="matrix(0.35 -8.000000e-02 -6.000000e-02 -0.49 178.89 319.57)">
			<stop  offset="0" style="stop-color:#E1D6B9"/>
			<stop  offset="1" style="stop-color:#000000"/>
		</linearGradient>
		<path id="ellipse4523" class="st32" d="M264.3,407.3c-1.3,1.2-2.2,2.7-2.6,4.4c-0.2,1.4,0,2.8,0.6,4.1c0.7,1.5,1.4,2.9,2.4,4.3
			c0.9,1.5,2,3,3,4.5c1,1.4,2.1,2.8,3.2,4c1,1,2.1,1.9,3.3,2.7c2.9,1.5,6.4,0.3,7.8-2.5c0.3-0.5,0.5-1.1,0.6-1.7
			c0.1-1.2-0.2-2.3-0.9-3.3c-0.8-1.2-1.6-2.3-2.6-3.3c-1.2-1.3-2.2-2.6-3.2-4c-1-1.6-1.9-3.3-2.6-5.1c-0.6-1.6-1.4-3.1-2.3-4.5
			c-0.6-1.1-1.6-1.8-2.8-1.9C267.1,405,265.8,405.7,264.3,407.3z"/>
		
			<linearGradient id="path4521_1_" gradientUnits="userSpaceOnUse" x1="-2171.5217" y1="-558.6887" x2="-2171.3018" y2="-558.6887" gradientTransform="matrix(-83.33 1.91 22.51 33.55 -168090.25 23310.7012)">
			<stop  offset="0" style="stop-color:#394655"/>
			<stop  offset="1" style="stop-color:#000000"/>
		</linearGradient>
		<path id="path4521" class="st33" d="M271.5,405.7c1,1.2,1.8,2.6,2.5,4c0.9,1.9,1.9,3.7,3.1,5.5s2.5,3.3,3.6,4.7
			c1.1,1.2,2,2.6,2.8,4c0.6,1.2,0.9,2.6,0.8,4c-0.2,1.5-0.9,2.9-2,3.9c-1,1.1-2.3,1.9-3.8,2.1c-1.4,0.1-2.8-0.2-4-0.8
			c-1.5-0.8-2.9-1.8-4.1-3c-1.4-1.4-2.7-2.9-3.9-4.5c-1.2-1.7-2.4-3.5-3.3-5.1c-0.9-1.5-1.7-3-2.3-4.6c-0.2-0.5-0.3-1.1-0.4-1.7
			c-0.2-1.1,1.6-2.8,1.6-1.6c0,1.1,0.2,2.2,0.6,3.2c0.6,1.4,1.4,2.8,2.3,4.1c0.9,1.4,1.9,2.9,2.9,4.3c0.9,1.4,2,2.7,3.1,3.9
			c0.9,1,2,1.9,3.2,2.6c2,1.4,4.8,1,6.4-0.9c0.9-0.8,1.5-2,1.7-3.2c0.1-1.1-0.2-2.2-0.8-3.1c-0.7-1.1-1.6-2.2-2.5-3.2
			c-1.1-1.2-2.2-2.5-3.1-3.9c-1-1.6-1.8-3.2-2.5-4.9c-0.6-1.5-1.3-3-2.2-4.4l-0.3-0.4c-0.2-0.3-0.5-0.6-0.8-0.8
			c-0.3-0.2,0.5-1.7,1.2-0.8C271.3,405.5,271.4,405.6,271.5,405.7z"/>
	</g>
</g>
<g id="layer3">
	<path id="path4248" class="st34" d="M190.6,361.1c-7.3,17.1-12.2,23.3-24.2,35.9c-9.2,9.7-23.1,19.6-35.1,31.7
		c-10.8,11-20.9,16.8-51.4,25.6c-9.6,2.8-35.2,5.2-41.2,29.9c37.1-24.7,97.9-18.7,134-39.7c30.4-17.6,71.5-66.8,102-70.7
		C217.7,373.2,200.8,369.6,190.6,361.1z"/>
	<path id="path4265" class="st35" d="M368.8,370.8l59-4.1c0,0,1.8,0.8,2.1,1.7c5.9,16-10.2,48.7-10.2,48.7c0-2.4,10.8-35.1-4.7-42.8
		C401.8,367.9,384.5,372.7,368.8,370.8L368.8,370.8z"/>
	<path id="path4280" class="st36" d="M190,362.5c-7,16.1-12,22.3-23.6,34.5c-9.2,9.7-23.1,19.6-35.1,31.7
		c-10.8,11-20.9,16.8-51.4,25.6c-8.5,2.5-29.7,4.7-38.5,22.4c2.2-2.8,5.8-3.9,7.9-7c3.6-5.2,48.7-9.3,60.5-16.9
		c7.8-5,26.1-14.2,35.3-20.3s40.1-31.9,48-33.3c24.8-4.5,44.8-25.5,44.8-25.5l-5.8-1.4c-21.2-1.6-31.7-4.5-38.6-9L190,362.5z"/>
	<path id="path4267" class="st34" d="M190.8,357.4c3.9,1,6.1,4.2,9.9,5.5c11.9,3.9,22.6,6.5,35,7.4c15.4,1.1,32.1,1.2,47.5,0.9
		c29.3-0.5,58.8-1.5,88.1-3c16-0.8,32.5-1.8,48.4-3.2c3.1-0.2,6.4-4.8,9.3-3.7c1.9,0.8,1.6,2.6,2.1,4.6c2,4,0.1,5.3-4.5,6.1
		c-15.5,2.4-31.4,2.9-47.1,3.5c-38.4,1.6-76.9,1.7-115.3,1.3c-13.6-0.1-27.3,0.4-40.8-1.3c-10.6-1.4-21.5-2.8-31.3-7
		c-3.3-1.4-6.4-2.2-7.2-5.7c-0.2-1.1,1-1.7,1.5-2.6c0.5-0.8,0.2-1.8,1-2.3C188.4,357.4,189.6,357.2,190.8,357.4L190.8,357.4z"/>
	<path id="path4340" class="st37" d="M186.8,358.7c-0.1,0.6-0.3,1.1-0.5,1.7c-0.6,0.9-1.8,1.5-1.5,2.6c0.8,3.5,3.9,4.3,7.2,5.7
		c9.8,4.3,20.7,5.7,31.3,7c13.5,1.7,27.2,1.2,40.8,1.3c38.4,0.4,76.9,0.4,115.3-1.3c15.7-0.7,31.5-1.1,47.1-3.5
		c4.6-0.8,6.5-2.2,4.5-6.1c0-0.2-0.1-0.4-0.1-0.5c0.4,3.7-5.3,3.9-9.5,4.7c-26.9,5.3-54.8,2.8-82.2,3.3
		c-34.3,0.5-74.7,5.2-108.5-0.8C216.6,370.2,195.7,364.6,186.8,358.7L186.8,358.7z"/>
</g>
<path class="st38" d="M454.6,168.7L454.6,168.7z"/>
<path class="st38" d="M397.5,213.7L397.5,213.7z"/>
<g>
	<g transform="translate(0.00630876,-0.00301984)">
		<path class="st39" d="M398.6,445.9c-3.8,17.1-19.2,27.6-34.3,23.3c-15.2-4.3-24.4-21.6-20.6-38.8c3.8-17.1,19.2-27.6,34.3-23.3
			C393.1,411.4,402.4,428.8,398.6,445.9z"/>
		<path class="st26" d="M383.6,433.6c0.6-4.3-2.3-6.5-6.2-8.1l1.3-5.8l-3.1-0.9l-1.2,5.6c-0.8-0.2-1.7-0.4-2.5-0.7l1.2-5.7l-3.1-0.9
			l-1.3,5.8c-0.7-0.2-1.3-0.3-2-0.5l0,0l-4.3-1.2l-0.8,3.8c0,0,2.3,0.6,2.3,0.6c1.3,0.4,1.5,1.3,1.4,2l-1.5,6.6
			c0.1,0,0.2,0.1,0.3,0.1c-0.1,0-0.2-0.1-0.3-0.1l-2,9.2c-0.2,0.4-0.5,1.1-1.4,0.8c0,0.1-2.3-0.6-2.3-0.6l-1.5,4l4,1.1
			c0.8,0.2,1.5,0.4,2.2,0.6l-1.3,5.8l3.1,0.9l1.3-5.8c0.8,0.3,1.7,0.5,2.5,0.7l-1.3,5.7l3.1,0.9l1.3-5.8c5.3,1.1,9.3,0.7,11-4.7
			c1.4-4.4-0.1-6.9-2.9-8.5C381.7,438.2,383.2,436.7,383.6,433.6z M376.5,444.9c-1,4.4-7.5,2-9.6,1.4l1.7-7.7
			C370.7,439.1,377.5,440.3,376.5,444.9z M377.5,433.5c-0.9,4-6.3,2-8,1.5l1.5-7C372.7,428.5,378.4,429.4,377.5,433.5z"/>
	</g>
</g>
</svg>
